v -0.1 -0.1 -0.1
v -0.1 -0.1 0.1
v -0.1 0.1 0.1
v -0.1 0.1 -0.1
v 0.1 0.1 -0.1
v 0.1 0.1 0.1
v 0.1 -0.1 0.1
v 0.1 -0.1 -0.1

vn 1 0 0
vn 0 1 0
vn 0 0 1
vn -1 0 0
vn 0 -1 0
vn 0 0 -1

vt 0.000000 0.493044
vt 0.332314 0.492025
vt 0.333333 0.824339
vt 0.001020 0.825358
vt 1.000000 0.159711
vt 0.998981 0.492025
vt 0.666667 0.491005
vt 0.667686 0.158692
vt 1.000000 0.824339
vt 0.667686 0.825358
vt 0.666667 0.493044
vt 0.334353 0.825358
vt 0.333333 0.493044
vt 0.665647 0.492025
vt 0.666667 0.824339
vt 0.333333 0.491005
vt 0.001020 0.492025
vt 0.000000 0.159711
vt 0.332314 0.158691
vt 0.333333 0.159711
vt 0.665647 0.158691
vt 0.334353 0.492025

f 1//4 2//4 4//4
f 4//4 2//4 3//4
f 8//6 1//6 5//6
f 5//6 1//6 4//6
f 4//2 3//2 5//2
f 5//2 3//2 6//2
f 5//1 6//1 8//1
f 8//1 6//1 7//1
f 2//3 7//3 3//3
f 3//3 7//3 6//3
f 8//5 7//5 1//5
f 1//5 7//5 2//5