# Blender v2.62 (sub 1) OBJ File: 'cube.blend'
# www.blender.org
mtllib cube.mtl
g Cube
v 1.000000 -1.000000 -1.000000
v 1.000000 -1.000000 1.000000
v -1.000000 -1.000000 1.000000
v -1.000000 -1.000000 -1.000000
v 1.000000 1.000000 -0.999999
v 0.999999 1.000000 1.000001
v -1.000000 1.000000 1.000000
v -1.000000 1.000000 -1.000000
vt 0.000000 0.493044
vt 0.332314 0.492025
vt 0.333333 0.824339
vt 0.001020 0.825358
vt 1.000000 0.159711
vt 0.998981 0.492025
vt 0.666667 0.491005
vt 0.667686 0.158692
vt 1.000000 0.824339
vt 0.667686 0.825358
vt 0.666667 0.493044
vt 0.334353 0.825358
vt 0.333333 0.493044
vt 0.665647 0.492025
vt 0.666667 0.824339
vt 0.333333 0.491005
vt 0.001020 0.492025
vt 0.000000 0.159711
vt 0.332314 0.158691
vt 0.333333 0.159711
vt 0.665647 0.158691
vt 0.334353 0.492025
vn 0.000000 -1.000000 0.000000
vn 0.000000 1.000000 0.000000
vn 1.000000 0.000000 0.000000
vn -0.000000 -0.000000 1.000000
vn -1.000000 -0.000000 -0.000000
vn 0.000000 0.000000 -1.000000
usemtl Material_texture.jpg
s off
f 1/1/1 2/2/1 3/3/1 4/4/1
f 5/5/2 8/6/2 7/7/2 6/8/2
f 1/6/3 5/9/3 6/10/3 2/11/3
f 2/12/4 6/13/4 7/14/4 3/15/4
f 3/16/5 7/17/5 8/18/5 4/19/5
f 5/20/6 1/21/6 4/7/6 8/22/6
